<?xml version="1.0" standalone="no"?>
<!DOCTYPE svg PUBLIC "-//W3C//DTD SVG 1.1//EN" "http://www.w3.org/Graphics/SVG/1.1/DTD/svg11.dtd" >
<svg xmlns="http://www.w3.org/2000/svg">
<metadata>Generated by IcoMoon</metadata>
<defs>
<font id="icoweplanr" horiz-adv-x="1024">
<font-face units-per-em="1024" ascent="960" descent="-64" />
<missing-glyph horiz-adv-x="1024" />
<glyph unicode="&#x20;" horiz-adv-x="512" d="" />
<glyph unicode="&#xe412;" glyph-name="photo_camera" d="M512 212.667c118 0 214 96 214 214s-96 214-214 214-214-96-214-214 96-214 214-214zM384 852.667h256l78-84h136c46 0 84-40 84-86v-512c0-46-38-86-84-86h-684c-46 0-84 40-84 86v512c0 46 38 86 84 86h136zM376 426.667c0 76 60 136 136 136s136-60 136-136-60-136-136-136-136 60-136 136z" />
<glyph unicode="&#xe5cd;" glyph-name="close" d="M810 664.667l-238-238 238-238-60-60-238 238-238-238-60 60 238 238-238 238 60 60 238-238 238 238z" />
<glyph unicode="&#xe87d;" glyph-name="favorite" d="M512 28.667l-62 56c-220 200-364 330-364 492 0 132 102 234 234 234 74 0 146-36 192-90 46 54 118 90 192 90 132 0 234-102 234-234 0-162-144-294-364-494z" />
<glyph unicode="&#xe900;" glyph-name="calendar" d="M960 832h-128v80c0 26.51-21.49 48-48 48s-48-21.49-48-48v-80h-448v80c0 26.51-21.49 48-48 48s-48-21.49-48-48v-80h-128c-35.346 0-64-28.654-64-64v-768c0-35.346 28.654-64 64-64h896c35.346 0 64 28.654 64 64v768c0 35.346-28.654 64-64 64zM928 32h-832v512h832v-512zM928 640h-832v96h832v-96z" />
<glyph unicode="&#xe901;" glyph-name="heart" d="M736 832c106.039 0 192-85.961 192-192 0-282.88-301.76-492.48-416-561.6-114.24 69.12-416 278.72-416 561.6 0 0.028 0 0.060 0 0.093 0 106.039 85.961 192 192 192 60.216 0 113.958-27.72 149.16-71.097 17.89-22.281 44.697-36.196 74.753-36.196 0.030 0 0.061 0 0.091 0h-0.005c0.026 0 0.056 0 0.086 0 30.057 0 56.863 13.915 74.329 35.654 35.508 43.857 89.123 71.546 149.204 71.546 0.134 0 0.267 0 0.401 0zM736 928c-0.029 0-0.064 0-0.099 0-90.25 0-170.785-41.596-223.479-106.661-53.646 64.944-134.188 106.442-224.422 106.442-158.981 0-287.875-128.817-288-287.769 0-384.012 448-640.012 512-672.012 64 32 512 288 512 672 0 159.058-128.942 288-288 288v0z" />
<glyph unicode="&#xe902;" glyph-name="map-marker" d="M916.907 564.48c-4.661 220.089-184.178 396.721-404.949 396.721s-400.288-176.631-404.942-396.286c-0.007-0.471-0.007-0.514-0.007-0.556 0-30.047 3.373-59.305 9.762-87.418l-0.802 2.633c52.020-219.877 179.034-404.109 351.969-528.515 14.147-10.36 28.59-15.485 44.23-15.485 0.091 0 0.183 0 0.274 0.001 0.207-0.003 0.468-0.004 0.73-0.004 12.439 0 24.101 3.327 34.145 9.139 3.938 2.811 8.205 5.798 12.898 9.211 170.625 125.323 294.319 305.802 345.185 514.792l0.842 6.168c6.724 26.893 10.61 57.779 10.667 89.563zM512 745.813c98.338-2.363 177.152-82.641 177.152-181.327 0-100.171-81.205-181.376-181.376-181.376-100.169 0-181.372 81.201-181.376 181.369 1.198 100.41 82.874 181.346 183.454 181.346 0.754 0 1.508-0.005 2.26-0.014z" />
<glyph unicode="&#xe903;" glyph-name="message" d="M960 128h-512l-160-160h-32c-35.346 0-64 28.654-64 64v96h-128c-35.346 0-64 28.654-64 64v672c0 35.346 28.654 64 64 64h896c35.346 0 64-28.654 64-64v-672c0-35.346-28.654-64-64-64zM928 832h-832v-608h192v-120.16l120.16 120.16h519.84v608z" />
<glyph unicode="&#xe904;" glyph-name="notepad" horiz-adv-x="768" d="M736-64h-704c-17.673 0-32 14.327-32 32v832c0 53.019 42.981 96 96 96h96v16c0 26.51 21.49 48 48 48s48-21.49 48-48v-16h192v16c0 26.51 21.49 48 48 48s48-21.49 48-48v-16h96c53.019 0 96-42.981 96-96v-832c0-17.673-14.327-32-32-32zM672 800h-96v-64h-96v64h-192v-64h-96v64h-96v-128h576v128zM672 576h-576v-544h576v544zM544 352h-320v96h320v-96zM544 160h-320v96h320v-96z" />
<glyph unicode="&#xe905;" glyph-name="search" d="M640 960c-0.142 0-0.311 0-0.48 0-211.812 0-383.52-171.708-383.52-383.52 0-89.236 30.477-171.354 81.59-236.513l-323.509-322.047c-9.261-8.769-15.024-21.151-15.024-34.88 0-26.51 21.49-48 48-48 13.72 0 26.096 5.756 34.844 14.986l322.9 322.902c64.375-50.465 146.532-80.928 235.803-80.928 212.077 0 384 171.923 384 384s-171.923 384-384 384c-0.212 0-0.424 0-0.636-0.001zM640 288c-159.058 0-288 128.942-288 288s128.942 288 288 288c159.058 0 288-128.942 288-288-0.218-158.97-129.030-287.781-287.979-288z" />
<glyph unicode="&#xe906;" glyph-name="star" d="M511.84 782.88l75.52-169.76c12.741-28.209 37.916-48.848 68.341-55.094l215.339-43.146-147.36-146.88c-17.397-17.439-28.154-41.509-28.154-68.091 0-6.477 0.639-12.804 1.856-18.923l41.018-209.626-187.52 83.2c-11.454 5.256-24.849 8.32-38.96 8.32s-27.506-3.064-39.556-8.564l-187.084-82.956 41.12 210.24c1.138 5.546 1.789 11.92 1.789 18.447 0 26.545-10.774 50.574-28.187 67.952l-147.042 147.042 214.56 42.88c31.044 6.352 56.219 26.991 68.715 54.596l75.605 170.364zM511.84 960c-16.465-0.021-30.636-9.822-37.016-23.904l-126.184-284.096-316.32-63.2c-18.643-3.967-32.426-20.294-32.426-39.84 0-11.25 4.566-21.434 11.945-28.799l220.321-220.161-61.6-315.2c-0.762-2.901-1.2-6.232-1.2-9.665 0-12.072 5.413-22.88 13.943-30.129 7.099-5.534 16.071-8.845 25.816-8.847 5.917 0.045 11.522 1.336 16.578 3.624l286.142 126.936 287.040-127.2c4.527-2.225 9.854-3.526 15.485-3.526 0.238 0 0.474 0.002 0.711 0.007 0.089-0.002 0.237-0.003 0.384-0.003 21.57 0 39.056 17.486 39.056 39.056 0 3.463-0.451 6.821-1.297 10.019l-61.699 314.928 220.48 220.16c7.395 7.344 11.972 17.517 11.972 28.759 0 4.181-0.633 8.214-1.809 12.008-4.373 13.982-16.035 24.74-30.535 27.825l-316.428 63.248-126.24 284c-6.512 14.265-20.653 24-37.067 24-0.019 0-0.037 0-0.056 0h0.003z" />
<glyph unicode="&#xe907;" glyph-name="storage" horiz-adv-x="896" d="M448 960c-247.040 0-448-100.48-448-224v-576c0-123.52 200.96-224 448-224s448 100.48 448 224v576c0 123.52-200.96 224-448 224zM448 864c232.24 0 352-89.76 352-128s-119.76-128-352-128-352 89.76-352 128 119.776 128 352 128zM800 160c0-38.24-119.76-128-352-128s-352 89.76-352 128v149.92c82.096-52.16 209.2-85.92 352-85.92s269.904 33.76 352 85.92v-149.92zM448 320c-232.24 0-352 89.76-352 128v149.92c82.096-52.16 209.2-85.92 352-85.92s269.904 33.76 352 85.92v-149.92c0-38.24-119.744-128-352-128z" />
<glyph unicode="&#xe908;" glyph-name="Toggle_Switches" d="M800 512h-576c-123.712 0-224 100.288-224 224s100.288 224 224 224h576c123.712 0 224-100.288 224-224s-100.288-224-224-224zM224 864c-70.692 0-128-57.308-128-128s57.308-128 128-128c70.692 0 128 57.308 128 128-0.1 70.652-57.348 127.9-127.99 128zM800 864h-392.32c25.226-35.676 40.321-80.075 40.321-128s-15.096-92.324-40.792-128.702l392.79 0.702c70.692 0 128 57.308 128 128s-57.308 128-128 128zM224 384h576c123.712 0 224-100.288 224-224s-100.288-224-224-224h-576c-123.712 0-224 100.288-224 224s100.288 224 224 224zM800 32c70.692 0 128 57.308 128 128s-57.308 128-128 128c-70.692 0-128-57.308-128-128 0.1-70.652 57.348-127.9 127.99-128zM224 32h392.32c-25.226 35.676-40.321 80.075-40.321 128s15.096 92.324 40.792 128.702l-392.79-0.702c-70.692 0-128-57.308-128-128s57.308-128 128-128z" />
<glyph unicode="&#xe909;" glyph-name="menu" horiz-adv-x="1354" d="M1354.653 875.537v5.186c-1.056-43.704-34.501-79.275-77.192-83.673l-1200.166-0.031c-43.533 4.553-77.218 40.907-77.527 85.192v-8.094c0.297 47.145 38.389 85.295 85.483 85.685h1183.847c46.635-0.41 84.416-37.741 85.552-84.159zM1354.653 21.058v-4.294c-3.406-45.117-40.85-80.434-86.544-80.434-0.116 0-0.233 0-0.349 0.001h-1181.017c-0.085 0-0.185 0-0.285 0-47.227 0-85.635 37.756-86.688 84.729l-0.002-4.427c0.993 45.107 36.349 81.646 80.872 84.516l1193.149 0.013c43.19-2.884 77.564-36.996 80.845-79.809zM1354.653 444.267v7.036c-0.108-44.68-34.071-81.394-77.588-85.853l-1195.244-0.031c-45.724 2.432-81.897 40.024-82.052 86.1v-7.516c0.15 46.294 36.61 84.024 82.385 86.207l1189.853 0.007c45.907-2.15 82.35-39.746 82.647-85.921z" />
<glyph unicode="&#xe90a;" glyph-name="add" d="M512-64c-282.77 0-512 229.23-512 512s229.23 512 512 512c282.77 0 512-229.23 512-512s-229.23-512-512-512zM512 864c-229.75 0-416-186.25-416-416s186.25-416 416-416c229.75 0 416 186.25 416 416-0.228 229.659-186.341 415.772-415.978 416zM672 384h-96v-96c0-35.346-28.654-64-64-64s-64 28.654-64 64v96h-96c-35.346 0-64 28.654-64 64s28.654 64 64 64h96v96c0 35.346 28.654 64 64 64s64-28.654 64-64v-96h96c35.346 0 64-28.654 64-64s-28.654-64-64-64z" />
<glyph unicode="&#xe90b;" glyph-name="delete" d="M512-64c-282.77 0-512 229.23-512 512s229.23 512 512 512c282.77 0 512-229.23 512-512s-229.23-512-512-512zM512 864c-229.75 0-416-186.25-416-416s186.25-416 416-416c229.75 0 416 186.25 416 416-0.255 229.648-186.352 415.745-415.976 416zM703.584 302.080c-1.255-25.507-22.241-45.712-47.945-45.712-13.081 0-24.941 5.233-33.599 13.72l-110.040 110.072-110.016-110.080c-8.647-8.773-20.66-14.207-33.942-14.207-25.809 0-46.825 20.519-47.624 46.134-0.040 0.787-0.062 1.622-0.062 2.462 0 13.046 5.253 24.864 13.76 33.456l110.012 110.076-110.016 110.080c-8.74 8.651-14.151 20.65-14.151 33.914 0 25.802 20.481 46.82 46.072 47.684 0.708 0.031 1.445 0.048 2.186 0.048 13.153 0 25.076-5.27 33.772-13.813l110.009-110.073 110.048 110.080c8.582 8.134 20.203 13.136 32.992 13.136 26.51 0 48-21.49 48-48 0-12.782-4.996-24.396-13.141-32.998l-110.027-110.058 110.048-110.080c8.484-8.599 13.724-20.417 13.724-33.458 0-0.838-0.022-1.67-0.064-2.498z" />
<glyph unicode="&#xe90c;" glyph-name="portfolio" d="M960 32h-896c-35.346 0-64 28.654-64 64v704c0 35.346 28.654 64 64 64h896c35.346 0 64-28.654 64-64v-704c0-35.346-28.654-64-64-64zM928 768h-832v-358.4c10.816-4.736 21.152-9.6 31.136-14.304 49.645-27.35 108.812-43.442 171.738-43.442 3.614 0 7.216 0.053 10.804 0.159 2.504-0.103 6.068-0.155 9.645-0.155 63.023 0 122.282 16.114 173.882 44.448 59.946 32.282 133.4 51.804 211.414 51.804 3.507 0 7.004-0.039 10.492-0.118 2.763 0.095 6.627 0.144 10.503 0.144 73.812 0 143.469-17.789 204.917-49.315l-2.531 369.18zM928 294.4c-10.88 4.768-21.248 9.6-31.264 14.368-49.651 27.313-108.815 43.382-171.732 43.382-3.661 0-7.31-0.054-10.945-0.162-2.494 0.104-6.055 0.155-9.628 0.155-63.030 0-122.293-16.127-173.889-44.479-59.962-32.263-133.424-51.772-211.442-51.772-3.498 0-6.987 0.039-10.466 0.117-2.689-0.091-6.465-0.138-10.253-0.138-73.81 0-143.465 17.787-204.913 49.309l2.532-177.18h832v166.4zM288 512c-35.346 0-64 28.654-64 64s28.654 64 64 64c35.346 0 64-28.654 64-64s-28.654-64-64-64z" />
<glyph unicode="&#xe90d;" glyph-name="profile" d="M1012.864 756.832l-532.864-532.832h-192v192l532.864 532.864c6.982 6.916 16.592 11.189 27.2 11.189s20.218-4.273 27.203-11.192l137.597-137.597c6.933-6.98 11.218-16.598 11.218-27.216s-4.285-20.236-11.22-27.218zM848 848l-464-464v-64h64l464 464zM496 800h-400v-768h768v400c0 26.51 21.49 48 48 48s48-21.49 48-48v-432c0-35.346-28.654-64-64-64h-832c-35.346 0-64 28.654-64 64v832c0 35.346 28.654 64 64 64h432c26.51 0 48-21.49 48-48s-21.49-48-48-48z" />
<glyph unicode="&#xe90e;" glyph-name="settings" d="M612.928 864c19.515-0.044 38.534-2.058 56.902-5.852l-124.646-122.596c-20.49-20.304-33.177-48.454-33.177-79.567 0-30.922 12.532-58.918 32.793-79.185l96-96c20.267-20.261 48.262-32.792 79.184-32.792s58.917 12.531 79.184 32.792l123.168 123.168c3.945-16.293 6.208-34.999 6.208-54.234 0-63.841-24.927-121.86-65.578-164.855-41.091-39.992-97.427-64.725-159.54-64.725-1.475 0-2.946 0.014-4.414 0.042-32.069 0.122-63.060 5.5-92.001 15.319-6.86 2.409-17.115 4.147-27.777 4.147-26.522 0-50.531-10.755-67.906-28.141l-266.336-266.304-135.744 135.744 266.304 266.304c17.368 17.372 28.11 41.368 28.11 67.874 0 10.662-1.738 20.917-4.946 30.499-9.27 26.643-14.736 58.129-14.736 90.893 0 1.22 0.008 2.439 0.023 3.655 0.257 61.715 24.987 117.79 65.008 158.906 41.193 40.149 97.619 64.945 159.836 64.945 1.435 0 2.868-0.013 4.297-0.039zM612.928 960c-1.397 0.022-3.045 0.034-4.696 0.034-88.507 0-168.724-35.499-227.187-93.036-57.505-58.312-93.045-138.499-93.045-226.988 0-0.004 0-0.007 0-0.011-0.009-0.985-0.014-2.151-0.014-3.317 0-43.455 7.197-85.229 20.464-124.195l-289.73-286.248c-11.578-11.581-18.738-27.578-18.738-45.248s7.161-33.667 18.739-45.248l180.992-180.992c11.581-11.578 27.578-18.738 45.248-18.738s33.667 7.161 45.248 18.739l288.96 288.928c35.811-12.221 77.070-19.332 119.973-19.456 1.505-0.023 3.21-0.037 4.918-0.037 88.387 0 168.497 35.438 226.897 92.88 58.231 61.833 94.043 145.434 94.043 237.4 0 53.612-12.17 104.382-33.899 149.697-6.356 14.602-21.135 26.825-39.035 30.401-3.455 0.69-7.020 1.051-10.67 1.051-0.051 0-0.103 0-0.154 0s-0.123 0-0.194 0c-15.151 0-28.875-6.111-38.841-16.004l-170.781-170.781c-2.895-2.894-6.895-4.685-11.312-4.685s-8.417 1.79-11.312 4.685l-96 96c-2.894 2.895-4.685 6.895-4.685 11.312s1.79 8.417 4.685 11.312l170.688 170.624c10.028 10.001 16.233 23.831 16.233 39.11 0 22.68-13.67 42.167-33.22 50.671-45.501 20.131-98.132 31.88-153.477 32.138h-0.095z" />
<glyph unicode="&#xe90f;" glyph-name="mail" horiz-adv-x="1260" d="M78.769 960c-43.503 0-78.769-35.266-78.769-78.769v-866.462c0-43.503 35.266-78.769 78.769-78.769h1102.769c43.503 0 78.769 35.266 78.769 78.769v866.462c0 43.503-35.266 78.769-78.769 78.769h-1102.769zM1142.154 841.846v-30.917l-512-429.607-512 429.607v30.917h1024zM118.154 54.154v602.585l461.351-387.151c13.592-11.471 31.306-18.443 50.649-18.443s37.056 6.972 50.766 18.539l461.234 387.054v-602.585h-1024z" />
<glyph unicode="&#xe910;" glyph-name="clock" d="M512-64c-282.77 0-512 229.23-512 512s229.23 512 512 512c282.77 0 512-229.23 512-512s-229.23-512-512-512zM512 860.903c-228.040 0-412.903-184.863-412.903-412.903s184.863-412.903 412.903-412.903c228.040 0 412.903 184.863 412.903 412.903-0.263 227.935-184.969 412.64-412.878 412.903zM743.226 398.452h-280.774v313.806c0 27.365 22.184 49.548 49.548 49.548s49.548-22.184 49.548-49.548v-214.71h181.677c27.365 0 49.548-22.184 49.548-49.548s-22.184-49.548-49.548-49.548z" />
<glyph unicode="&#xe911;" glyph-name="funnel" horiz-adv-x="960" d="M480 960c-112.608 0-480-10.24-480-144v-96c0.007-7.442 1.706-14.485 4.733-20.767 75.668-156.74 195.388-282.476 343.055-363.67l4.212-303.563c0-0.028 0-0.061 0-0.095 0-8.175 2.098-15.861 5.786-22.547 23.621-43.882 69.474-73.368 122.214-73.368s98.593 29.486 121.973 72.873c3.928 7.212 6.026 14.929 6.027 23.136v301.44c151.878 83.305 271.592 209.045 345.244 361.233 5.044 10.831 6.756 17.868 6.756 25.306 0 0.007 0 0.015 0 0.022v95.999c0 133.76-367.392 144-480 144zM480 864c189.504 0 315.328-26.88 365.536-48-50.208-21.12-176-48-365.536-48s-315.36 26.88-365.536 48c50.176 21.12 176.032 48 365.536 48zM538.816 405.76c-16.017-8.048-26.816-24.349-26.816-43.172 0-0.010 0-0.020 0-0.030v-316.159c-8.138-8.301-19.468-13.447-32-13.447s-23.862 5.146-31.993 13.439l-0.007 316.167c0 0.008 0 0.018 0 0.028 0 18.823-10.799 35.124-26.539 43.046-137.603 69.187-246.994 176.714-316.508 308.533 115.527-37.687 300.743-42.167 375.047-42.167s259.52 4.48 376.928 46.080c-71.394-135.732-180.786-243.259-314.003-310.442z" />
<glyph unicode="&#xe912;" glyph-name="label" d="M1005.248 461.248l-506.528-506.528c-11.581-11.578-27.578-18.738-45.248-18.738s-33.667 7.161-45.248 18.739l-389.504 389.504c-11.578 11.581-18.738 27.578-18.738 45.248s7.161 33.667 18.739 45.248l506.528 506.528c11.579 11.583 27.576 18.748 45.247 18.752h389.505c35.346 0 64-28.654 64-64v-389.472c0-0.005 0-0.012 0-0.018 0-17.677-7.166-33.679-18.752-45.262zM109.248 389.472l344.224-344.256 68.736 68.736-344.256 344.224zM928 864h-344.224l-337.952-337.952 344.256-344.224 337.92 337.952v344.224zM736 736c35.346 0 64-28.654 64-64s-28.654-64-64-64c-35.346 0-64 28.654-64 64s28.654 64 64 64z" />
<glyph unicode="&#xe913;" glyph-name="layers" d="M960 960h-640c-35.346 0-64-28.654-64-64v-192h-192c-35.346 0-64-28.654-64-64v-640c0-35.346 28.654-64 64-64h640c35.346 0 64 28.654 64 64v192h192c35.346 0 64 28.654 64 64v640c0 35.346-28.654 64-64 64zM672 32h-576v576h160v-352c0-35.346 28.654-64 64-64h352v-160zM928 288h-576v576h576v-576z" />
<glyph unicode="&#xe914;" glyph-name="stats" d="M976-64h-928c-26.51 0-48 21.49-48 48s21.49 48 48 48h928c26.51 0 48-21.49 48-48s-21.49-48-48-48zM928 128h-128c-35.346 0-64 28.654-64 64v512c0 35.346 28.654 64 64 64h128c35.346 0 64-28.654 64-64v-512c0-35.346-28.654-64-64-64zM896 672h-64v-448h64v448zM576 128h-128c-35.346 0-64 28.654-64 64v704c0 35.346 28.654 64 64 64h128c35.346 0 64-28.654 64-64v-704c0-35.346-28.654-64-64-64zM544 864h-64v-640h64v640zM224 128h-128c-35.346 0-64 28.654-64 64v320c0 35.346 28.654 64 64 64h128c35.346 0 64-28.654 64-64v-320c0-35.346-28.654-64-64-64zM192 480h-64v-256h64v256z" />
<glyph unicode="&#xe915;" glyph-name="star-fill" horiz-adv-x="1066" d="M1021.873 608.689h-283.136v0.499c-32.429 0.051-60.1 20.366-71.032 48.958-0.899 2.274-1.644 4.49-2.258 6.76l-85.259 262.983c-7.625 18.932-25.84 32.052-47.12 32.052-22.669 0-41.861-14.889-48.329-35.422l-0.098-0.359-84.021-257.707c-0.031-0.158-0.081-0.299-0.149-0.429-0.821-3.214-1.719-5.908-2.78-8.519-11.133-28.277-38.593-48.249-70.725-48.317l-0.008-0.499h-283.53c-24.779-3.743-43.554-24.89-43.554-50.422 0-16.453 7.796-31.084 19.896-40.402 0.881-0.679 1.655-1.244 2.417-1.808l220.068-160.873c20.357-13.951 33.545-37.072 33.569-63.274 0-0.036 0-0.075 0-0.113 0-6.11-0.742-12.048-2.141-17.726-0.996-4.377-2.418-8.628-4.208-12.68l-83.238-256.86c-0.123-0.376-0.243-0.681-0.378-0.976l-0.646-1.912c-1.299-4.362-2.056-9.375-2.074-14.562 0-0.061 0-0.121 0-0.181 0-28.024 22.707-50.744 50.726-50.767 9.293 0.020 17.999 2.502 25.51 6.828l8.455 6.169c0 0.131 0.105 0.131 0.158 0.263l218.388 159.114c1.523 1.182 3.164 2.363 4.792 3.545 11.728 7.896 26.173 12.604 41.717 12.604 0.103 0 0.206 0 0.309-0.001 0.051 0 0.13 0 0.209 0 15.043 0 29.045-4.457 40.757-12.122 2.624-1.544 5.14-3.365 7.472-5.393-0.055 0.055-0.046 0.056-0.037 0.056 0.073 0 0.131-0.059 0.131-0.131 0-0.001 0-0.002 0-0.003l223.285-163.052c0.092 0 0.197-0.131 0.302-0.131 7.432-4.616 16.451-7.352 26.108-7.352 0.052 0 0.104 0 0.157 0 28.012 0.156 50.667 22.908 50.667 50.95 0 5.385-0.835 10.574-2.383 15.446-0.098 0.296-0.413 1.215-0.662 2.002l-83.837 258.363c-1.251 2.866-2.387 6.283-3.223 9.815-1.536 5.985-2.368 12.369-2.368 18.947 0 24.049 11.131 45.497 28.523 59.475 1.855 1.535 3.748 2.918 5.725 4.181l224.416 163.844c10.881 9.398 17.726 23.214 17.726 38.628 0 25.789-19.16 47.103-44.021 50.483z" />
<glyph unicode="&#xe916;" glyph-name="arrow-down" horiz-adv-x="1862" d="M1732.887 960.372l129.396-126.929-913.222-897.908-129.396 127.023zM912.756-64.465l129.396 127.023-913.222 897.815-129.396-126.929z" />
<glyph unicode="&#xe917;" glyph-name="arrow-left" horiz-adv-x="562" d="M562.662 889.238l-69.737 71.019-493.156-502.257 69.737-71.275zM-0.231 438.001l69.737 71.275 493.156-502.514-69.737-71.019z" />
<glyph unicode="&#xe918;" glyph-name="arrow-right" horiz-adv-x="563" d="M-0.256 889.238l69.737 71.019 493.284-502.257-69.737-71.275zM562.764 438.001l-69.737 71.275-493.284-502.514 69.737-71.019z" />
<glyph unicode="&#xe919;" glyph-name="caret-right" horiz-adv-x="683" d="M651.947 509.269l-564.907 442.368c-8.552 5.359-18.944 8.537-30.079 8.537-0.225 0-0.451-0.001-0.675-0.004-0.331 0.009-0.761 0.014-1.192 0.014-29.789 0-54.060-23.629-55.091-53.167l-0.003-0.094v-918.357c1.033-29.586 25.265-53.178 55.009-53.178 0.461 0 0.921 0.006 1.379 0.017 0.138-0.004 0.381-0.006 0.624-0.006 11.503 0 22.195 3.475 31.083 9.433l563.852 441.046c18.936 14.149 31.063 36.506 31.063 61.696s-12.127 47.547-30.862 61.552z" />
<glyph unicode="&#xe91a;" glyph-name="caret-down" horiz-adv-x="1536" d="M860.16-18.048l651.52 833.664 11.52 13.824c7.918 13.225 12.656 29.148 12.8 46.167 0.017 0.663 0.027 1.396 0.027 2.132 0 44.378-35.232 80.527-79.252 82.001l-0.135 0.004h-1377.28c-44.742-0.922-80.66-37.41-80.66-82.288 0-0.636 0.007-1.27 0.022-1.902-0.002-0.041-0.003-0.201-0.003-0.361 0-17.55 5.256-33.873 14.28-47.479l8.761-11.202 654.080-834.56c21.24-28.106 54.601-46.080 92.16-46.080s70.92 17.974 91.95 45.79z" />
<glyph unicode="&#xea0a;" glyph-name="plus" d="M992 576h-352v352c0 17.672-14.328 32-32 32h-192c-17.672 0-32-14.328-32-32v-352h-352c-17.672 0-32-14.328-32-32v-192c0-17.672 14.328-32 32-32h352v-352c0-17.672 14.328-32 32-32h192c17.672 0 32 14.328 32 32v352h352c17.672 0 32 14.328 32 32v192c0 17.672-14.328 32-32 32z" />
<glyph unicode="&#xea0f;" glyph-name="cross" d="M1014.662 137.34c-0.004 0.004-0.008 0.008-0.012 0.010l-310.644 310.65 310.644 310.65c0.004 0.004 0.008 0.006 0.012 0.010 3.344 3.346 5.762 7.254 7.312 11.416 4.246 11.376 1.824 24.682-7.324 33.83l-146.746 146.746c-9.148 9.146-22.45 11.566-33.828 7.32-4.16-1.55-8.070-3.968-11.418-7.31 0-0.004-0.004-0.006-0.008-0.010l-310.648-310.652-310.648 310.65c-0.004 0.004-0.006 0.006-0.010 0.010-3.346 3.342-7.254 5.76-11.414 7.31-11.38 4.248-24.682 1.826-33.83-7.32l-146.748-146.748c-9.148-9.148-11.568-22.452-7.322-33.828 1.552-4.16 3.97-8.072 7.312-11.416 0.004-0.002 0.006-0.006 0.010-0.010l310.65-310.648-310.65-310.652c-0.002-0.004-0.006-0.006-0.008-0.010-3.342-3.346-5.76-7.254-7.314-11.414-4.248-11.376-1.826-24.682 7.322-33.83l146.748-146.746c9.15-9.148 22.452-11.568 33.83-7.322 4.16 1.552 8.070 3.97 11.416 7.312 0.002 0.004 0.006 0.006 0.010 0.010l310.648 310.65 310.648-310.65c0.004-0.002 0.008-0.006 0.012-0.008 3.348-3.344 7.254-5.762 11.414-7.314 11.378-4.246 24.684-1.826 33.828 7.322l146.746 146.748c9.148 9.148 11.57 22.454 7.324 33.83-1.552 4.16-3.97 8.068-7.314 11.414z" />
</font>
</defs>
</svg>
